<svg id="Layer_1" data-name="Layer 1" xmlns="http://www.w3.org/2000/svg" viewBox="0 0 455.11 154.96">
  <defs>
    <style>
      .cls-1 {
        fill: #38aedc;
      }

      .cls-2 {
        fill: #43b262;
      }

      .cls-3 {
        fill: #a2e189;
      }

      .cls-4 {
        fill: #f6d4e3;
      }

      .cls-5 {
        fill: #2e3235;
      }

      .cls-6 {
        fill: #2e2624;
      }
    </style>
  </defs>
  <path class="cls-1" d="M133.26,309.26a61.36,61.36,0,0,1,24.66,7.15,55.51,55.51,0,0,1-1.07,8.23c-.77,2.83-.13,4.91,2.11,6.6s4.41,2.35,6.73.05a2.1,2.1,0,0,1,2-.31c.48.38.89,1.73.62,2-1,1.18-2.28,2.74-3.64,3-2,.35-4.13-.29-6.21-.57-2.92-.39-4.35,1.09-3.57,3.91a10.34,10.34,0,0,0,1.46,2.79c1.2,1.8,2.51,3.14-.23,5.18-2.49,1.85-1.7,6.46.92,6.77s5.18-.69,7.79-1.06c1-.14,2-.15,3.08-.23l.16,2.15a39.21,39.21,0,0,0-6.16,1,12.5,12.5,0,0,0-4.73,2.72c-1,.92-1.2,2.59-1.93,3.68-1.81-1.21-3.37-2.68-5.12-3-.91-.15-3.17,1.93-3.06,2.77.25,1.91,1.59,3.68,2.39,5.83-3.17,11,2.08,18.79,12.87,19.67,6.39.51,3.69,6.4,5.42,9.62.68,1.27-.68,3.65-1.16,5.51,0,.19-.41.35-.65.42-2.47.71-3,2.55-2.31,4.64,1,3-.23,4.64-2.5,6.31-1.16.85-1.74,2.49-2.58,3.77l1.06.79c2.71-1.51,6.16-2.43,7.95-4.67,3.22-4,6.57-8,9.72-12,4.21-5.34,6.87-12,9.76-18.23,1.22-2.66,2.24-6,1.76-8.74-1-5.55,1.47-9.34,4.72-13.09a65,65,0,0,1-3.8,41.46c-6.36,14.78-16.71,26.07-30.93,33.2-6.64,3.33-14.31,4.83-21.65,6.51-9.32,2.13-18.65,1-27.81-1.49a67.27,67.27,0,0,1-47.63-49.76c-2.15-9.15-1.9-18.41-.35-27.74,1.21,3.34,2.06,6.8,3.21,10.16.9,2.62,2.8,3.87,5.78,3.81,4.84-.08,7.24,1.57,7.84,6.53.83,7,4.4,11.46,10.43,14.73s10,8.1,10.89,15.16c1,8.5,8.84,10.1,14.32,14.17a15,15,0,0,0-.51-4.4,11.88,11.88,0,0,0-.83-2.22c-2.44-4.91-1.27-7.55,3.24-10.87,2.8-2.07,4.76-5.33,7-8.17.7-.9.81-2.24,1.44-3.22,2.82-4.34,2.33-5.6-2.75-7.13-2.12-.64-4.9-.87-6.13-2.34-3.27-3.88-6-8-11.93-7.67-.4,0-.83-.6-1.24-.94-3.43-2.79-7.18-2.93-11.18-1.45-5,1.85-8,.48-9.05-4.66-.94-4.43-2.48-7.56-7.66-8-2.87-.26-3.5-3.26-.93-4.77s5.81-1.94,8.67-2.57c-1.28,4.83.64,7.89,5.29,8.83,3.69.75,7.43-1.41,8-4.61.6-3.54-2.16-6.38-6.8-7a1.69,1.69,0,0,1-1.08-.38c2.47-2.57,5-4.79,7.2-7.23a45,45,0,0,0,4.4-5.79,12.73,12.73,0,0,0,1-3.14c5.34,1.32,7.8-.16,6.86-3.86a6,6,0,0,0-2-3.3c-3-2.08-6-4.66-9.33-5.4-1.76-.39-4.17,2.87-6.5,4.07-1.15.58-3.29.78-4.07.1s-1-2.83-.59-4a6.48,6.48,0,0,1,3-3c3.65-2.09,7.4-3.17,11.71-1.46,1.44.58,3.45-.27,5.21-.46a22.85,22.85,0,0,0-.84-5.09c-.56-1.41-1.84-2.52-2.81-3.77,1.58-.6,3.16-1.2,5.25-1.85,4.26,1.67,5.66,4.68,6.29,8.69a13.45,13.45,0,0,0,3.62,6.73c3.17,3.32,5.84,2.51,8.15-1.44a13.43,13.43,0,0,1,4.46-4.68c6.19-3.66,7.19-5.9,5-12.95m5.21,65,3.7-2.88-.34-1.07c-11.05,7.4-21,5.64-30.52-4,3.08,8.93,16.14,12.5,27.16,7.94M105,361.3c.59-1.71,1.62-3.44,1.57-5.14,0-.92-1.88-2.45-3-2.5a5.79,5.79,0,0,0-4.28,1.77c-.74.94-.87,3.6-.18,4.17C100.48,360.74,102.61,361,105,361.3Z" transform="translate(-60.15 -289.34)"/>
  <path class="cls-2" d="M417.49,404.37H381.23V391.81h23.31v-8.74H381.22V372.76h7.45V353.71h-7.45V343.57h60.62v9.85H434.4v19.05h7.45V382.8H418.53v8.73h23.31v12.84H417.49m2.38-40.89v-9.66H403.52v18.55h16.35Z" transform="translate(-60.15 -289.34)"/>
  <path class="cls-3" d="M100.26,314.74c1.24,1.27,2.52,2.38,3.08,3.79a22.85,22.85,0,0,1,.84,5.09c-1.76.19-3.77,1-5.21.46-4.31-1.71-8.06-.63-11.71,1.46a6.48,6.48,0,0,0-3,3c-.41,1.21-.22,3.33.59,4s2.92.48,4.07-.1c2.33-1.2,4.74-4.46,6.5-4.07,3.35.74,6.36,3.32,9.33,5.4a6,6,0,0,1,2,3.3c.94,3.7-1.52,5.18-6.86,3.86a12.73,12.73,0,0,1-1,3.14,45,45,0,0,1-4.4,5.79c-2.25,2.44-4.73,4.66-7.47,7.3-1.92,1.15-3.48,2-5,2.81-2.94.91-6.16,1.34-8.75,2.85s-1.94,4.51.93,4.77c5.18.47,6.72,3.6,7.66,8,1.08,5.14,4,6.51,9.05,4.66,4-1.48,7.75-1.34,11.18,1.45.41.34.84,1,1.24.94,5.88-.33,8.66,3.79,11.93,7.67,1.23,1.47,4,1.7,6.13,2.34,5.08,1.53,5.57,2.79,2.75,7.13-.63,1-.74,2.32-1.44,3.22-2.2,2.84-4.16,6.1-7,8.17-4.51,3.32-5.68,6-3.24,10.87a11.88,11.88,0,0,1,.83,2.22,15,15,0,0,1,.51,4.4c-5.48-4.07-13.27-5.67-14.32-14.17-.88-7.06-5-11.94-10.89-15.16s-9.6-7.71-10.43-14.73c-.6-5-3-6.61-7.84-6.53-3,.06-4.88-1.19-5.78-3.81-1.15-3.36-2-6.82-3.15-10.52,3-16.4,10.83-29.79,24-39.72A171.85,171.85,0,0,1,100.26,314.74Z" transform="translate(-60.15 -289.34)"/>
  <path class="cls-3" d="M193.56,361.73c-3.28,4-5.74,7.82-4.75,13.37.48,2.75-.54,6.08-1.76,8.74-2.89,6.27-5.55,12.89-9.76,18.23-3.15,4-6.5,7.94-9.72,12-1.79,2.24-5.24,3.16-7.95,4.67l-1.06-.79c.84-1.28,1.42-2.92,2.58-3.77,2.27-1.67,3.52-3.34,2.5-6.31-.71-2.09-.16-3.93,2.31-4.64.24-.07.6-.23.65-.42.48-1.86,1.84-4.24,1.16-5.51-1.73-3.22,1-9.11-5.42-9.62-10.79-.88-16-8.71-12.59-19.65,3.95-.14,5.32-2.26,5.69-5.41.55-1.33.79-3,1.75-3.92a12.5,12.5,0,0,1,4.73-2.72,39.21,39.21,0,0,1,6.16-1l-.16-2.15c-1,.08-2.06.09-3.08.23-2.61.37-5.27,1.35-7.79,1.06s-3.41-4.92-.92-6.77c2.74-2,1.43-3.38.23-5.18a10.34,10.34,0,0,1-1.46-2.79c-.78-2.82.65-4.3,3.57-3.91,2.08.28,4.24.92,6.21.57,1.36-.23,2.59-1.79,3.64-3,.27-.3-.14-1.65-.62-2a2.1,2.1,0,0,0-2,.31c-2.32,2.3-4.52,1.61-6.73-.05s-2.88-3.77-2.11-6.6c.68-2.49.73-5.15,1.26-8,6.71,4.87,13.66,9.52,19.57,15.24,7.91,7.66,12.64,17.43,15.25,28.16.12.48.43.93.63,1.68m-26.84,4.53c-3.68-.32-7.09.22-8.18,4.36-.78,3,1.06,5,3.6,6.33,3.67,1.88,8.15.7,9.68-2.43S171.81,368.42,166.72,366.26Z" transform="translate(-60.15 -289.34)"/>
  <path class="cls-2" d="M331.77,404.37h-22V368.8H333.1V353.71H309.79V343.57H346.6v35.25H323.29v14.29H346.6v11.26Z" transform="translate(-60.15 -289.34)"/>
  <path class="cls-2" d="M262.71,392.93c-2-3.31-4-6.27-6-9.13-8.53,4.87-7.92,12.63-7.45,20.36H235.76c0-5.44-.9-11,.31-16.09.84-3.58,4.17-6.88,7.07-9.58,5-4.68,7.09-10,6.13-16.79a54.81,54.81,0,0,1-.05-7.19H236V343.57h40V354.2h-13.2c0,5.59-.69,10.83.26,15.75.58,3,3.67,5.52,5.67,8.22a12.09,12.09,0,0,0,1.87,2c7.77,6.54,5.47,15.34,5.57,23.9H262.71Z" transform="translate(-60.15 -289.34)"/>
  <path class="cls-2" d="M454.79,374.88c0-5.8.08-11.21,0-16.62-.05-1.91,1.28-4.77-2.54-5-.25,0-.53-1.86-.57-2.86-.08-2.21,0-4.43,0-6.89h41.85v35.15H455c-.08-1.12-.16-2.26-.24-3.78M467.52,355v12.52h12.4V353.27A71.07,71.07,0,0,0,467.52,355Z" transform="translate(-60.15 -289.34)"/>
  <path class="cls-2" d="M477,381.35c9.12,0,17.85,0,26.57,0,4.23,0,8.06,1,10.12,5.27a13.46,13.46,0,0,1-.73,13.78c-2.1,3.29-5.84,3.86-9.38,3.9-12.68.12-25.38.24-38.06,0-7.49-.16-11.56-3.14-11.51-12,0-7.1,4.25-10.9,11.89-10.92,3.57,0,7.14,0,11.1,0m3.6,8.73-12.75.78c-.71,2.68-.11,4,2.46,4,9.5,0,19,.05,28.5-.09.92,0,1.83-1.28,2.74-2-.84-.63-1.64-1.76-2.52-1.82C493.17,390.54,487.28,390.35,480.61,390.08Z" transform="translate(-60.15 -289.34)"/>
  <path class="cls-2" d="M354,398V343.48h14.19v22.57l5.37.38v10.76l-5.18.36v26.59H354Z" transform="translate(-60.15 -289.34)"/>
  <path class="cls-2" d="M295.25,401.79c-.66,1.11-1.28,2.42-2,2.46-3.67.22-7.35.1-11.26.1V343.56h13.25C295.26,362.88,295.26,382.15,295.25,401.79Z" transform="translate(-60.15 -289.34)"/>
  <path class="cls-2" d="M500,350.44v-6.93h13.16v35.2H500Z" transform="translate(-60.15 -289.34)"/>
  <path class="cls-3" d="M133,309.22c2.47,7.09,1.47,9.33-4.72,13a13.43,13.43,0,0,0-4.46,4.68c-2.31,3.95-5,4.76-8.15,1.44a13.45,13.45,0,0,1-3.62-6.73c-.63-4-2-7-6-8.89,5.82-2.56,12.16-3,19.18-2.69a13.24,13.24,0,0,1,2.22,3.55l1.07-.16c.34-1.42.69-2.83,1-4.25C130.63,309.16,131.71,309.17,133,309.22Z" transform="translate(-60.15 -289.34)"/>
  <path class="cls-2" d="M129.48,308.8c-.27,1.78-.62,3.19-1,4.61l-1.07.16c-.54-1.15-1.09-2.29-1.86-3.61a72.66,72.66,0,0,1,.89-7.29c-10.22-2.42-14.2-5.93-15.17-13.31,6.53-.14,12.36,1.07,16.37,7.44,4.14-6,9.87-7.77,16.56-7.42-.09,7.12-5.55,11.91-14.83,12.94C129.41,304.32,129.41,306.38,129.48,308.8Z" transform="translate(-60.15 -289.34)"/>
  <path class="cls-4" d="M81.93,360.31a40.31,40.31,0,0,1,5-2.84,8.38,8.38,0,0,1,1.44.06c4.64.62,7.4,3.46,6.8,7-.55,3.2-4.29,5.36-8,4.61C82.57,368.2,80.65,365.14,81.93,360.31Z" transform="translate(-60.15 -289.34)"/>
  <path class="cls-5" d="M138.2,374.41c-10.75,4.43-23.81.86-26.89-8.07,9.51,9.63,19.47,11.39,30.52,4l.34,1.07C140.94,372.36,139.7,373.32,138.2,374.41Z" transform="translate(-60.15 -289.34)"/>
  <path class="cls-6" d="M104.69,361.42c-2.08-.47-4.21-.68-5.59-1.82-.69-.57-.56-3.23.18-4.17a5.79,5.79,0,0,1,4.28-1.77c1.08,0,2.93,1.58,3,2.5C106.57,357.86,105.54,359.59,104.69,361.42Z" transform="translate(-60.15 -289.34)"/>
  <path class="cls-6" d="M155.26,362.35c-.19,3.39-1.56,5.51-5.41,5.32-1.18-1.84-2.52-3.61-2.77-5.52-.11-.84,2.15-2.92,3.06-2.77C151.89,359.67,153.45,361.14,155.26,362.35Z" transform="translate(-60.15 -289.34)"/>
  <path class="cls-4" d="M167,366.31c4.77,2.11,6.36,5,4.78,8.21s-6,4.31-9.68,2.43c-2.54-1.3-4.38-3.35-3.6-6.33C159.63,366.48,163,365.94,167,366.31Z" transform="translate(-60.15 -289.34)"/>
</svg>
