<svg  id="레이어_1" data-name="레이어 1" xmlns="http://www.w3.org/2000/svg" viewBox="0 0 199.77 304.24">
  <defs>
    <style>
      .cls-1, .cls-2 {
        fill: #fff;
      }

      .cls-2 {
        stroke: #231815;
        stroke-width: 5px;
      }

      .cls-2, .cls-3 {
        stroke-miterlimit: 10;
      }

      .cls-3 {
        fill: none;
        stroke: #fff;
        stroke-width: 4px;
      }
      tspan {
        fill: white;
        font-size: 50px;
      }
    </style>
  <path id="text-curve" class="cls-3" d="M21.2,123.67s8.72-50,105.65-62.81" transform="translate(-19.23 -58.88)"/>
  </defs>
    <text >
      <textPath href="#text-curve">
        <tspan>Scroll!</tspan>
      </textPath>
    </text>
  <path class="cls-1" d="M21.33,221.25q0-24.36.06-48.72c.22-42.37,29.77-78.25,73.53-89.42,53.32-13.62,109.53,18.06,121.46,68.68a93.92,93.92,0,0,1,2.47,20.84c.22,32.68.16,65.36,0,98-.21,43.76-32.19,80.77-77.84,90.3C88.7,371.9,35.26,340.16,23.86,291.11a104.39,104.39,0,0,1-2.47-21.42C21.06,253.56,21.32,237.4,21.33,221.25Zm184.32-5.64-171-.13c-.07,1-.17,1.71-.18,2.45,0,17.49-.15,35,0,52.47A85.16,85.16,0,0,0,36,285.58c8.55,44.31,56.49,73.56,103.22,63.09,39.41-8.83,66.12-40.29,66.46-78.42.15-17.3.06-34.6.07-51.9C205.8,217.5,205.71,216.66,205.65,215.61ZM113.5,202.92c0-6.16.07-12.19-.06-18.22,0-.65-1.07-1.48-1.85-1.88-7.46-3.81-11.19-9.62-11.17-17.57,0-11.55.09-23.05,0-34.58-.06-8.28,3.57-14.4,11.53-18.21.63-.31,1.51-1,1.53-1.54.1-6,.07-12,.08-18.65-5.66,1-10.83,1.73-15.88,2.92C63.41,103.26,37,132.84,35,165.76c-.72,12-.36,24-.47,36a3.44,3.44,0,0,0,.31,1.05ZM126.9,92.77c0,6.27-.07,12.11.07,18,0,.66,1.05,1.54,1.83,1.9,7.46,3.79,11.19,9.62,11.18,17.56,0,11.61,0,23.24,0,34.86,0,8.16-3.68,14.17-11.53,18-.69.33-1.55,1.15-1.56,1.77-.13,6-.09,12-.09,18.16l78.93.06c0-11.21.52-22.27-.07-33.27-1.57-29.69-16.29-52.2-43.81-67.18a83.16,83.16,0,0,0-34.95-9.79Zm-.07,55.28h0c0-6.16.11-12.29,0-18.43a6.59,6.59,0,0,0-13.14-.59,2.44,2.44,0,0,0,0,.27q-.21,18.42,0,36.84a6.23,6.23,0,0,0,6.09,6.16c3.87.32,7-2.51,7.08-6.71.09-5.87,0-11.73,0-17.58Z" transform="translate(-19.23 -58.88)"/>
  <path class="cls-2" d="M21.22,89.57" transform="translate(-19.23 -58.88)"/>
  <path class="cls-2" d="M-95.85,277" transform="translate(-19.23 -58.88)"/>
</svg>
