<svg id="레이어_1" data-name="레이어 1" xmlns="http://www.w3.org/2000/svg" viewBox="0 0 175.06 450.69">
  <defs>
    <style>
      .cls-1 {
        fill: #fff;
        stroke: #fff;
        stroke-miterlimit: 10;
        stroke-width: 10px;
        
      }
      .cls-2 {
        position: relative;
        stroke : #FBC531;
        stroke-miterlimit: 10;
        stroke-width: 15px;
        transform: translate(-168.47px,-80px);
        animation: goDown infinite 1.3s;
      }

      @keyframes goDown {
        0% {
          transform: translate(-168.47px,-80px);
        }
        100% {
          transform: translate(-168.47px,150px);
        }
      }


    </style>

  </defs>
  <g class="group">
    <path class="cls-2"  d="M256,432.85a6,6,0,0,1-6-6V345.76a6,6,0,1,1,12,0v80.93a6,6,0,0,1-5.83,6.15Z" transform="translate(-168.47 -74.15)"/>
    <path class="cls-2" d="M256,432.85a6,6,0,0,1-4-1.52l-36-31.48a6,6,0,0,1,8-9h0L260,422.34a5.93,5.93,0,0,1,.63,8.39l0,0A6.09,6.09,0,0,1,256,432.85Z" transform="translate(-168.47 -74.15)"/>
    <path class="cls-2" d="M256,432.85a6,6,0,0,1-4-10.51l36-31.48a6,6,0,0,1,8,9h0l-36,31.48A5.86,5.86,0,0,1,256,432.85Z" transform="translate(-168.47 -74.15)"/> 
  </g>
    <path class="cls-1" d="M278.05,315.92H233.83a60.43,60.43,0,0,1-60.36-60.36V139.71a60.44,60.44,0,0,1,60.32-60.56h44.26a60.4,60.4,0,0,1,60.48,60.32V255.56a60.4,60.4,0,0,1-60.44,60.36ZM233.83,91.14a48.42,48.42,0,0,0-48.38,48.37V255.56a48.47,48.47,0,0,0,48.38,48.38h44.22a48.43,48.43,0,0,0,48.5-48.34V139.71a48.41,48.41,0,0,0-48.26-48.57H233.83Z" transform="translate(-168.47 -74.15)"/>
    <path class="cls-1" d="M256,178.66a6,6,0,0,1-6-6V142.59a6,6,0,1,1,12,0v30.08A6,6,0,0,1,256,178.66Z" transform="translate(-168.47 -74.15)"/>
</svg>
